# xmcd
#
# Track frame offsets:
# 150
# 25765
# 42842
# 60982
# 73947
# 89025
# 104757
# 121425
# 135775
# 153392
# 166817
# 192420
# 210192
# 225350
# 239145
# 253710
#
# Disc length: 3812 seconds
#
#
# Revision: 0
# Processed by: cddbd v1.5.2PL0 Copyright (c) Steve Scherf et al.
# Submitted via: Nero 7, 11, 10, 0 
#
DISCID=d80ee210
DTITLE=John Leslie Blues Band - In The Kitchen
DYEAR=1998
DGENRE=Blues
TTITLE0=Smooth Trim
TTITLE1=In The Kitchen
TTITLE2=What Have I Done
TTITLE3=I Got To Go
TTITLE4=Night Lover
TTITLE5=Sittin' On It All The Time
TTITLE6=Rockinitus
TTITLE7=Money On The Line
TTITLE8=It Just Takes Time
TTITLE9=In One Ear - Out The Other
TTITLE10=Blow Top Blues
TTITLE11=Hate To See You Go
TTITLE12=Cool Off Woman
TTITLE13=Run Along Baby
TTITLE14=Snatch It Back
TTITLE15=Smokey Room
EXTD=
EXTT0=Smooth Trim
EXTT1=In The Kitchen
EXTT2=What Have I Done
EXTT3=I Got To Go
EXTT4=Night Lover
EXTT5=Sittin' On It All The Time
EXTT6=Rockinitus
EXTT7=Money On The Line
EXTT8=It Just Takes Time
EXTT9=In One Ear - Out The Other
EXTT10=Blow Top Blues
EXTT11=Hate To See You Go
EXTT12=Cool Off Woman
EXTT13=Run Along Baby
EXTT14=Snatch It Back
EXTT15=Smokey Room
PLAYORDER=
